<svg xmlns="http://www.w3.org/2000/svg" version="1.1" xmlns:xlink="http://www.w3.org/1999/xlink" xmlns:svgjs="http://svgjs.dev/svgjs" width="1000" height="1000" viewBox="0 0 1000 1000"><rect width="1000" height="1000" fill="#ffffff"></rect><g transform="matrix(0.7,0,0,0.7,149.57575757575756,282.1265587044535)"><svg viewBox="0 0 396 247" data-background-color="#111111" preserveAspectRatio="xMidYMid meet" height="623" width="1000" xmlns="http://www.w3.org/2000/svg" xmlns:xlink="http://www.w3.org/1999/xlink"><g id="tight-bounds" transform="matrix(1,0,0,1,0.2400000000000091,-0.09999999999999432)"><svg viewBox="0 0 395.52 247.2" height="247.2" width="395.52"><g><svg></svg></g><g><svg viewBox="0 0 395.52 247.2" height="247.2" width="395.52"><g transform="matrix(1,0,0,1,75.54432,99.63260772633441)"><svg viewBox="0 0 244.43135999999998 47.93478454733116" height="47.93478454733116" width="244.43135999999998"><g><svg viewBox="0 0 244.43135999999998 47.93478454733116" height="47.93478454733116" width="244.43135999999998"><g><svg viewBox="0 0 244.43135999999998 47.93478454733116" height="47.93478454733116" width="244.43135999999998"><g><svg viewBox="0 0 244.43135999999998 47.93478454733116" height="47.93478454733116" width="244.43135999999998"><g id="textblocktransform"><svg viewBox="0 0 244.43135999999998 47.93478454733116" height="47.93478454733116" width="244.43135999999998" id="textblock"><g><svg viewBox="0 0 244.43135999999998 47.93478454733116" height="47.93478454733116" width="244.43135999999998"><g transform="matrix(1,0,0,1,0,0)"><svg width="244.43135999999998" viewBox="3.4000000953674316 -32.75 169.52999877929688 33.25" height="47.93478454733116" data-palette-color="#fbfbf8"><path d="M6.15-24.75L6.15-1Q6.15-0.6 5.85-0.3 5.55 0 5.15 0L5.15 0Q4.7 0 4.42-0.3 4.15-0.6 4.15-1L4.15-1 4.15-24.75Q4.15-25.15 4.45-25.45 4.75-25.75 5.15-25.75L5.15-25.75Q5.6-25.75 5.88-25.45 6.15-25.15 6.15-24.75L6.15-24.75ZM5.15-29.15L5.15-29.15Q4.35-29.15 3.88-29.6 3.4-30.05 3.4-30.75L3.4-30.75 3.4-31.15Q3.4-31.85 3.9-32.3 4.4-32.75 5.2-32.75L5.2-32.75Q5.9-32.75 6.38-32.3 6.85-31.85 6.85-31.15L6.85-31.15 6.85-30.75Q6.85-30.05 6.38-29.6 5.9-29.15 5.15-29.15ZM25.8-25.75L25.8-25.75Q28.95-25.75 30.92-24.5 32.9-23.25 33.82-21.1 34.75-18.95 34.75-16.3L34.75-16.3 34.75-1Q34.75-0.6 34.45-0.3 34.15 0 33.75 0L33.75 0Q33.3 0 33.02-0.3 32.75-0.6 32.75-1L32.75-1 32.75-16.1Q32.75-18.25 32.02-20 31.3-21.75 29.72-22.8 28.15-23.85 25.6-23.85L25.6-23.85Q23.4-23.85 21.3-22.8 19.2-21.75 17.82-20 16.45-18.25 16.45-16.1L16.45-16.1 16.45-1Q16.45-0.6 16.15-0.3 15.85 0 15.45 0L15.45 0Q15 0 14.72-0.3 14.45-0.6 14.45-1L14.45-1 14.45-23.95Q14.45-24.35 14.75-24.65 15.05-24.95 15.45-24.95L15.45-24.95Q15.9-24.95 16.17-24.65 16.45-24.35 16.45-23.95L16.45-23.95 16.45-19.05 15.2-16.65Q15.2-18.45 16.15-20.1 17.1-21.75 18.65-23.03 20.2-24.3 22.07-25.03 23.95-25.75 25.8-25.75ZM65.95-12.6L65.95-12.6Q65.95-8.9 64.34-5.93 62.75-2.95 59.97-1.23 57.2 0.5 53.65 0.5L53.65 0.5Q50.15 0.5 47.35-1.23 44.55-2.95 42.92-5.93 41.3-8.9 41.3-12.6L41.3-12.6Q41.3-16.35 42.92-19.33 44.55-22.3 47.35-24.03 50.15-25.75 53.65-25.75L53.65-25.75Q57.2-25.75 59.97-24.03 62.75-22.3 64.34-19.33 65.95-16.35 65.95-12.6ZM63.95-12.6L63.95-12.6Q63.95-15.85 62.62-18.38 61.3-20.9 58.97-22.38 56.65-23.85 53.65-23.85L53.65-23.85Q50.7-23.85 48.35-22.38 46-20.9 44.65-18.38 43.3-15.85 43.3-12.6L43.3-12.6Q43.3-9.4 44.65-6.88 46-4.35 48.35-2.88 50.7-1.4 53.65-1.4L53.65-1.4Q56.65-1.4 58.97-2.88 61.3-4.35 62.62-6.88 63.95-9.4 63.95-12.6ZM71.04-25.85L71.04-25.85Q71.29-25.85 71.57-25.68 71.84-25.5 71.94-25.2L71.94-25.2 81.19-3.05 80.69-2.7 90.09-25.2Q90.34-25.85 91.14-25.85L91.14-25.85Q91.39-25.85 91.74-25.65 92.09-25.45 92.09-25.05L92.09-25.05Q92.09-24.8 92.04-24.68 91.99-24.55 91.94-24.45L91.94-24.45 81.99-0.65Q81.74 0 81.04 0L81.04 0Q80.74 0 80.47-0.18 80.19-0.35 80.09-0.65L80.09-0.65 70.09-24.4Q70.04-24.5 70.02-24.63 69.99-24.75 69.99-24.85L69.99-24.85Q69.99-25.25 70.24-25.55 70.49-25.85 71.04-25.85ZM100.14-24.75L100.14-1Q100.14-0.6 99.84-0.3 99.54 0 99.14 0L99.14 0Q98.69 0 98.42-0.3 98.14-0.6 98.14-1L98.14-1 98.14-24.75Q98.14-25.15 98.44-25.45 98.74-25.75 99.14-25.75L99.14-25.75Q99.59-25.75 99.87-25.45 100.14-25.15 100.14-24.75L100.14-24.75ZM99.14-29.15L99.14-29.15Q98.34-29.15 97.87-29.6 97.39-30.05 97.39-30.75L97.39-30.75 97.39-31.15Q97.39-31.85 97.89-32.3 98.39-32.75 99.19-32.75L99.19-32.75Q99.89-32.75 100.37-32.3 100.84-31.85 100.84-31.15L100.84-31.15 100.84-30.75Q100.84-30.05 100.37-29.6 99.89-29.15 99.14-29.15ZM107.34-25.5L107.34-25.5Q107.84-25.5 108.14-25.05L108.14-25.05 126.19-1.4Q126.39-1.15 126.39-0.8L126.39-0.8Q126.39-0.4 126.11-0.1 125.84 0.2 125.44 0.2L125.44 0.2Q124.99 0.2 124.59-0.25L124.59-0.25 106.49-23.85Q106.29-24.1 106.29-24.45L106.29-24.45Q106.29-24.9 106.61-25.2 106.94-25.5 107.34-25.5ZM107.34 0.2L107.34 0.2Q106.99 0.2 106.69-0.03 106.39-0.25 106.39-0.75L106.39-0.75Q106.39-1.1 106.59-1.35L106.59-1.35 115.34-12.7 116.54-11.15 108.14-0.2Q107.84 0.2 107.34 0.2ZM125.44-25.5L125.44-25.5Q125.94-25.5 126.16-25.25 126.39-25 126.39-24.65L126.39-24.65Q126.39-24.5 126.31-24.33 126.24-24.15 126.14-24L126.14-24 117.39-12.3 116.34-14.05 124.59-25.05Q124.99-25.5 125.44-25.5ZM132.49 0L132.28 0Q131.63 0 131.28-0.45 130.94-0.9 130.94-1.55L130.94-1.55 130.94-2.7Q130.94-3.4 131.28-3.83 131.63-4.25 132.28-4.25L132.28-4.25 132.49-4.25Q133.19-4.25 133.51-3.83 133.84-3.4 133.84-2.7L133.84-2.7 133.84-1.55Q133.84-0.9 133.51-0.45 133.19 0 132.49 0L132.49 0ZM160.93-24.95L160.93-24.95Q161.38-24.95 161.66-24.65 161.93-24.35 161.93-23.95L161.93-23.95 161.93-1Q161.93-0.6 161.63-0.3 161.33 0 160.93 0L160.93 0Q160.48 0 160.21-0.3 159.93-0.6 159.93-1L159.93-1 159.93-8.1 160.73-8.75Q160.73-7.15 159.93-5.5 159.13-3.85 157.73-2.5 156.33-1.15 154.43-0.33 152.53 0.5 150.33 0.5L150.33 0.5Q146.98 0.5 144.36-1.25 141.73-3 140.23-6 138.73-9 138.73-12.75L138.73-12.75Q138.73-16.55 140.26-19.48 141.78-22.4 144.41-24.08 147.03-25.75 150.33-25.75L150.33-25.75Q152.48-25.75 154.38-24.98 156.28-24.2 157.71-22.8 159.13-21.4 159.93-19.53 160.73-17.65 160.73-15.45L160.73-15.45 159.93-16.7 159.93-23.95Q159.93-24.35 160.21-24.65 160.48-24.95 160.93-24.95ZM150.43-1.4L150.43-1.4Q153.23-1.4 155.43-2.88 157.63-4.35 158.88-6.93 160.13-9.5 160.13-12.75L160.13-12.75Q160.13-15.85 158.88-18.38 157.63-20.9 155.43-22.38 153.23-23.85 150.43-23.85L150.43-23.85Q147.68-23.85 145.48-22.43 143.28-21 142.01-18.5 140.73-16 140.73-12.75L140.73-12.75Q140.73-9.5 141.98-6.93 143.23-4.35 145.43-2.88 147.63-1.4 150.43-1.4ZM172.23-24.75L172.23-1Q172.23-0.6 171.93-0.3 171.63 0 171.23 0L171.23 0Q170.78 0 170.51-0.3 170.23-0.6 170.23-1L170.23-1 170.23-24.75Q170.23-25.15 170.53-25.45 170.83-25.75 171.23-25.75L171.23-25.75Q171.68-25.75 171.96-25.45 172.23-25.15 172.23-24.75L172.23-24.75ZM171.23-29.15L171.23-29.15Q170.43-29.15 169.96-29.6 169.48-30.05 169.48-30.75L169.48-30.75 169.48-31.15Q169.48-31.85 169.98-32.3 170.48-32.75 171.28-32.75L171.28-32.75Q171.98-32.75 172.46-32.3 172.93-31.85 172.93-31.15L172.93-31.15 172.93-30.75Q172.93-30.05 172.46-29.6 171.98-29.15 171.23-29.15Z" opacity="1" transform="matrix(1,0,0,1,0,0)" fill="#000000" class="wordmark-text-0" data-fill-palette-color="primary" id="text-0"></path></svg></g></svg></g></svg></g></svg></g><g></g></svg></g></svg></g></svg></g><g><path d="M80.748 88.316A122.216 122.216 0 0 1 314.772 88.316L310.449 88.316A117.893 117.893 0 0 0 85.071 88.316L80.748 88.316M80.748 158.884A122.216 122.216 0 0 0 314.772 158.884L310.449 158.884A117.893 117.893 0 0 1 85.071 158.884L80.748 158.884" fill="#000000" stroke="transparent" data-fill-palette-color="tertiary"></path></g></svg></g><defs></defs></svg><rect width="395.52" height="247.2" fill="none" stroke="none" visibility="hidden"></rect></g></svg></g></svg>